# xmcd
#
# Track frame offsets:
#	150
#	15515
#	35834
#	54581
#	71915
#	93164
#	116349
#	135633
#	150551
#	166574
#	184770
#	200820
#	215107
#
# Disc length: 3036 seconds
#
# Revision: 1
# Processed by: cddbd v1.5.2PL0 Copyright (c) Steve Scherf et al.
# Submitted via: audiograbber 1.83.01
#
DISCID=b40bda0d
DTITLE=8th Day - The 8th Day ...Plus - I Gotta Get Home ...Plus  [CD2)
DYEAR=1973
DGENRE=Oldies
TTITLE0=I Got To Get Home (I Can't Let My Baby Get Lonely)
TTITLE1=Cheba
TTITLE2=Good Book
TTITLE3=Anythang
TTITLE4=Rocks In My Head
TTITLE5=Faith
TTITLE6=Get Your Mind Straight
TTITLE7=Heaven Is There To Guide Us
TTITLE8=You Made Me Over
TTITLE9=I'm Worried  (Single Edit)
TTITLE10=Just As Long  (Single Edit) 
TTITLE11=It's Instrumental To Be Free
TTITLE12=Free Your Mind
EXTD=
EXTT0=
EXTT1=
EXTT2=
EXTT3=
EXTT4=
EXTT5=
EXTT6=
EXTT7=
EXTT8=
EXTT9=
EXTT10=
EXTT11=
EXTT12=
PLAYORDER=
